<?xml version="1.0" standalone="no"?>
<!DOCTYPE svg PUBLIC "-//W3C//DTD SVG 20010904//EN"
 "http://www.w3.org/TR/2001/REC-SVG-20010904/DTD/svg10.dtd">
<svg version="1.0" xmlns="http://www.w3.org/2000/svg"
 width="140.000000pt" height="140.000000pt" viewBox="0 0 140.000000 140.000000"
 preserveAspectRatio="xMidYMid meet" >
<metadata>
Created by potrace 1.16, written by Peter Selinger 2001-2019
</metadata>
<g transform="translate(0.000000,140.000000) scale(0.100000,-0.100000)"
fill="#183a1d" stroke="none">
<path d="M635 1377 c-3 -7 -5 -47 -3 -88 l3 -74 90 0 c86 0 93 1 135 33 38 28
52 32 105 32 39 0 69 -6 83 -16 22 -15 22 -18 22 -278 0 -215 -3 -266 -14
-275 -9 -7 -40 -11 -78 -9 l-63 3 -31 65 c-22 45 -37 65 -50 65 -27 0 -29 -29
-4 -90 32 -80 58 -99 139 -103 80 -5 122 12 146 59 14 25 15 71 13 300 l-3
271 -33 29 c-31 28 -37 29 -123 29 -84 0 -93 -2 -135 -31 -38 -26 -52 -30 -97
-27 l-52 3 -5 55 c-4 42 -9 56 -23 58 -9 2 -20 -3 -22 -11z"/>
<path d="M242 1320 c-57 -35 -62 -61 -62 -332 0 -211 2 -248 18 -278 25 -52
72 -72 151 -67 78 6 104 29 144 127 15 36 37 72 50 80 12 8 59 17 107 20 77 4
85 7 85 25 0 18 -8 20 -75 23 -41 2 -89 0 -107 -3 -46 -8 -87 -52 -112 -120
-32 -84 -44 -95 -108 -95 -40 0 -58 5 -73 20 -19 19 -20 33 -20 268 0 301 -3
292 104 292 65 0 76 -3 114 -31 44 -32 75 -35 80 -8 2 10 -17 31 -50 55 -49
37 -57 39 -133 42 -67 3 -85 0 -113 -18z"/>
<path d="M864 1149 c-26 -13 -54 -60 -54 -91 0 -31 24 -65 61 -84 37 -18 90
-5 114 29 23 32 19 91 -7 122 -26 29 -81 41 -114 24z"/>
<path d="M523 426 c-35 -16 -43 -48 -23 -86 9 -16 18 -18 60 -13 40 5 51 3 56
-11 10 -25 -12 -68 -72 -137 -54 -64 -64 -92 -44 -130 10 -17 22 -19 113 -19
67 0 107 4 115 12 7 7 12 32 12 56 l0 44 -55 -6 c-30 -3 -55 -4 -55 -1 0 2 16
21 35 42 48 52 69 100 70 155 0 39 -5 53 -27 75 -23 23 -38 28 -90 30 -40 2
-75 -2 -95 -11z"/>
<path d="M802 432 c-9 -6 -12 -54 -10 -203 l3 -194 29 -3 c15 -2 39 -1 52 2
23 6 24 10 24 94 l1 87 44 -80 c24 -44 49 -86 55 -92 15 -17 85 -16 99 1 8 9
11 70 9 197 l-3 183 -25 6 c-14 3 -37 4 -52 2 -27 -4 -27 -5 -30 -91 l-3 -86
-37 70 c-20 39 -42 77 -50 87 -15 19 -87 32 -106 20z"/>
<path d="M200 253 c0 -98 3 -188 6 -200 6 -22 11 -23 110 -23 94 0 104 2 114
21 6 11 8 33 5 49 -6 27 -10 29 -63 32 -54 3 -57 4 -59 30 -2 25 2 27 40 30
41 3 42 4 45 40 3 37 3 37 -40 40 -40 3 -43 5 -43 33 0 30 1 30 58 33 l57 3 0
44 0 45 -115 0 -115 0 0 -177z"/>
</g>
</svg>
